<svg width="77" height="77" viewBox="0 0 77 77" fill="none" xmlns="http://www.w3.org/2000/svg">
<g clip-path="url(#clip0)">
<path d="M33.2522 4.68298L16.919 4.73975C15.6304 4.74423 14.5893 5.79253 14.5938 7.08118L14.6506 23.4144C14.6551 24.7031 15.7033 25.7441 16.992 25.7396L33.3252 25.6829C34.6139 25.6784 35.6549 24.6301 35.6505 23.3414L35.5937 7.00819C35.5892 5.71953 34.5409 4.6785 33.2522 4.68298Z" fill="#EEA835"/>
<path opacity="0.5" d="M33.3414 30.3495L17.0082 30.4063C15.7195 30.4108 14.6785 31.4591 14.683 32.7477L14.7397 49.081C14.7442 50.3696 15.7925 51.4107 17.0812 51.4062L33.4144 51.3494C34.7031 51.3449 35.7441 50.2966 35.7396 49.008L35.6829 32.6748C35.6784 31.3861 34.6301 30.3451 33.3414 30.3495Z" fill="#40393E"/>
<path opacity="0.5" d="M58.9188 4.59381L42.5855 4.65058C41.2969 4.65506 40.2558 5.70335 40.2603 6.99201L40.3171 23.3252C40.3216 24.6139 41.3699 25.6549 42.6585 25.6505L58.9917 25.5937C60.2804 25.5892 61.3214 24.5409 61.317 23.2523L61.2602 6.91902C61.2557 5.63036 60.2074 4.58933 58.9188 4.59381Z" fill="#40393E"/>
<path opacity="0.5" d="M59.008 30.2603L42.6748 30.3171C41.3861 30.3216 40.3451 31.3699 40.3495 32.6585L40.4063 48.9918C40.4108 50.2804 41.4591 51.3214 42.7477 51.317L59.081 51.2602C60.3696 51.2557 61.4107 50.2074 61.4062 48.9188L61.3494 32.5855C61.3449 31.2969 60.2966 30.2558 59.008 30.2603Z" fill="#EEA835"/>
</g>
<defs>
<clipPath id="clip0">
<rect width="77" height="77" fill="white"/>
</clipPath>
</defs>
</svg>
